<svg width="334" height="64" viewBox="0 0 334 64" fill="none" xmlns="http://www.w3.org/2000/svg">
<path d="M32.3377 0H32.384C32.4571 0.266151 32.5228 0.534778 32.5935 0.802166C32.6337 0.928433 32.6751 1.05222 32.7177 1.17725C32.7615 1.30476 32.8066 1.43226 32.8541 1.55853C32.8663 1.61547 32.8918 1.72936 32.9052 1.78631C32.9722 1.95714 33.0331 2.12921 33.1013 2.2988C33.1135 2.35574 33.1354 2.47087 33.1476 2.52781C33.2121 2.69122 33.2718 2.85586 33.3363 3.01803C33.4411 3.27304 33.5373 3.533 33.6408 3.78925C33.7504 4.08511 33.8722 4.37602 34.0122 4.6595C34.0889 4.86128 34.1632 5.06553 34.2448 5.26731C34.3508 5.46662 34.4506 5.66963 34.5541 5.87141C34.7125 6.20317 34.8744 6.53369 35.04 6.86174C35.1606 7.11304 35.2836 7.36309 35.4029 7.61439C35.5065 7.78151 35.6173 7.94368 35.7232 8.10956C35.75 8.17393 35.8036 8.30267 35.8304 8.36704C35.9802 8.66166 36.1482 8.94762 36.32 9.22986C36.4588 9.47621 36.611 9.71389 36.7474 9.96147C36.8473 10.1311 36.9557 10.2957 37.0604 10.4628C37.1432 10.5891 37.2272 10.7154 37.3064 10.8441C37.3466 10.8998 37.427 11.0112 37.4684 11.0669C37.5451 11.1957 37.6279 11.3232 37.7107 11.4507C37.7899 11.5745 37.8715 11.697 37.9543 11.8196C38.0334 11.9446 38.1162 12.0684 38.199 12.1909C38.277 12.3172 38.3574 12.4422 38.439 12.5685C38.5546 12.7344 38.6789 12.8928 38.8031 13.0525C38.948 13.2679 39.1124 13.4709 39.2585 13.6863C39.384 13.8473 39.5106 14.0094 39.6251 14.179C39.7505 14.3437 39.876 14.5071 39.9904 14.6816C40.0793 14.7968 40.1707 14.9131 40.2608 15.0295C40.4057 15.2474 40.5786 15.4454 40.7455 15.6472C40.9586 15.9691 41.2545 16.2241 41.4591 16.5521C41.7076 16.8368 41.9925 17.0931 42.1898 17.4211C42.4687 17.7417 42.7768 18.0339 43.0569 18.3545C43.3175 18.7853 43.7133 19.1047 44.0543 19.4662C45.1759 20.5889 46.2634 21.7464 47.4057 22.8469C47.827 23.1081 48.1291 23.5154 48.5017 23.8372C48.8244 24.0365 49.0765 24.3274 49.3554 24.58C49.627 24.752 49.8535 24.9848 50.091 25.1989C50.3613 25.3747 50.5878 25.6062 50.8229 25.8253C51.0445 25.9726 51.2491 26.1422 51.472 26.2895C51.6217 26.4232 51.7691 26.5581 51.9201 26.6931C52.1393 26.8379 52.3439 27.0075 52.5631 27.1548C52.6739 27.2477 52.786 27.343 52.8992 27.4358C53.1148 27.5807 53.3145 27.7478 53.5288 27.8963C53.5861 27.9359 53.703 28.0164 53.7602 28.0573C53.9721 28.2033 54.1694 28.3692 54.3825 28.5153C54.4385 28.5561 54.5518 28.6378 54.609 28.6774C54.7345 28.7579 54.8575 28.8421 54.9817 28.9263C55.1071 29.0055 55.2313 29.0872 55.3568 29.1701C55.5285 29.2964 55.6917 29.4363 55.8536 29.5786C55.3848 29.6059 54.8976 29.5205 54.4471 29.6851C54.0817 29.7136 53.7066 29.6826 53.3559 29.8064C53.1002 29.8262 52.8444 29.8386 52.5899 29.8621C52.2465 29.9661 51.8811 29.9488 51.5365 30.0515C51.3173 30.0726 51.0969 30.0874 50.8777 30.1085C50.6706 30.1704 50.4575 30.21 50.2468 30.2521C49.9533 30.3177 49.6525 30.3375 49.3627 30.4142C49.2117 30.439 49.0619 30.4625 48.9133 30.4885C48.6649 30.5554 48.4104 30.5925 48.1607 30.6532C47.9939 30.6952 47.8283 30.7373 47.6639 30.7893C47.5494 30.8128 47.4361 30.8376 47.3229 30.8624C47.0769 30.9267 46.826 30.9651 46.58 31.027C46.5203 31.0468 46.401 31.0889 46.3413 31.1087C46.1331 31.1706 45.9224 31.2226 45.7154 31.2882C45.6021 31.308 45.4888 31.3291 45.3768 31.3501C45.1686 31.4157 44.9555 31.4677 44.7472 31.5321C44.6912 31.5482 44.5767 31.5803 44.5195 31.5952C44.3953 31.6435 44.2698 31.6905 44.1456 31.7363C43.9398 31.792 43.734 31.8403 43.5306 31.901C43.4722 31.9171 43.3565 31.9505 43.2992 31.9678C43.136 32.0297 42.9704 32.0867 42.8072 32.1473C42.6806 32.1894 42.5551 32.2327 42.4309 32.2798C42.3749 32.2946 42.2629 32.3231 42.2069 32.338C42.0826 32.385 41.9572 32.4308 41.833 32.4754C41.7112 32.5162 41.5906 32.5571 41.4689 32.5967C41.2302 32.7081 40.9842 32.8022 40.737 32.8901C40.5652 32.9495 40.396 33.0163 40.2303 33.0856C40.1147 33.1327 39.999 33.1785 39.8833 33.2231C39.7591 33.259 39.6348 33.2949 39.5106 33.3283C39.451 33.3629 39.3304 33.431 39.2695 33.4657C38.9492 33.613 38.6167 33.7281 38.3026 33.8891C38.0578 33.9955 37.8081 34.0896 37.5621 34.1923C37.4452 34.2542 37.3271 34.3174 37.2102 34.3805C37.1456 34.4176 37.0153 34.4894 36.9508 34.5266C36.8948 34.5315 36.7827 34.5427 36.7267 34.5489C36.6622 34.586 36.5331 34.6603 36.4685 34.6974C36.2688 34.7964 36.0703 34.8967 35.8718 34.9982C35.7086 35.0799 35.5467 35.1629 35.3847 35.247C35.0583 35.4117 34.7319 35.5776 34.4031 35.7397C34.2399 35.8437 34.0804 35.9539 33.9172 36.0579C33.7967 36.1173 33.6773 36.1767 33.558 36.2374C33.4959 36.2671 33.3704 36.3253 33.3083 36.355C33.1439 36.4602 32.9844 36.5728 32.8212 36.6793C32.6994 36.7362 32.5776 36.7944 32.4571 36.8526C32.2914 36.9566 32.1295 37.0655 31.9626 37.167C31.7544 37.2846 31.5559 37.4183 31.3562 37.5496C31.2003 37.6548 31.0395 37.7563 30.8763 37.8504C30.7083 37.9519 30.5463 38.0608 30.3807 38.166C30.2577 38.2515 30.1347 38.3369 30.0093 38.4173C29.952 38.4582 29.8388 38.5386 29.7828 38.5795C29.5696 38.7256 29.3711 38.8915 29.158 39.0375C29.1032 39.0784 28.9912 39.1613 28.9352 39.2022C28.8061 39.2802 28.6782 39.3619 28.5528 39.4448C28.3896 39.5624 28.2349 39.6887 28.079 39.8149C27.8635 39.9647 27.6613 40.1331 27.4433 40.2779C27.2923 40.4104 27.1438 40.5453 26.9928 40.6778C26.7236 40.8597 26.4922 41.0925 26.2219 41.2732C26.0319 41.4428 25.848 41.6186 25.6568 41.7869C25.2269 42.0518 24.9456 42.5012 24.5121 42.7624C23.8362 43.39 23.2127 44.0709 22.5587 44.7208C22.236 45.06 21.867 45.3632 21.6234 45.7705C21.3056 46.1444 20.9159 46.4539 20.6504 46.8723C20.5238 47.0258 20.3934 47.178 20.2656 47.334C20.1219 47.5556 19.9477 47.7537 19.7785 47.9554C19.5946 48.2253 19.3668 48.4605 19.1902 48.7353C19.1172 48.8158 19.0453 48.8963 18.9723 48.9767C18.7945 49.0807 18.6215 49.1946 18.4474 49.3048C18.3268 49.3629 18.2075 49.4211 18.0881 49.4805C17.886 49.608 17.6875 49.7393 17.4804 49.8569C17.3124 49.9584 17.1516 50.0686 16.986 50.175C16.8654 50.2555 16.7449 50.3359 16.6219 50.4127C16.4124 50.5291 16.2127 50.6627 16.013 50.794C15.8547 50.9017 15.6939 51.0019 15.5283 51.096C15.4053 51.1715 15.2835 51.252 15.163 51.3337C14.9949 51.4414 14.8305 51.5553 14.6612 51.6605C14.6064 51.7038 14.4992 51.788 14.4457 51.8301C14.2715 51.9353 14.1035 52.048 13.9293 52.1544C13.8757 52.1965 13.7686 52.2807 13.715 52.3228C13.5859 52.4008 13.458 52.4837 13.3314 52.5667C13.1268 52.7152 12.9331 52.8786 12.7298 53.0272C12.6031 53.1089 12.4777 53.1918 12.3498 53.271C12.2926 53.3106 12.1793 53.3923 12.1233 53.432C11.9552 53.5483 11.7957 53.6758 11.6374 53.8033C11.4231 53.9519 11.2233 54.1202 11.0078 54.2663C10.8945 54.3591 10.7825 54.4532 10.6692 54.5473C10.4525 54.6934 10.2503 54.8617 10.0323 55.0078C9.92028 55.1007 9.80824 55.196 9.6962 55.2901C9.477 55.4374 9.27362 55.6057 9.05442 55.7518C8.90341 55.8843 8.75484 56.0192 8.60383 56.1516C8.33591 56.3324 8.10574 56.5626 7.83904 56.7458C7.68682 56.8758 7.53703 57.0095 7.3848 57.1395C7.0706 57.345 6.81852 57.6285 6.54207 57.8798C6.22057 58.0803 5.96849 58.3687 5.68961 58.6213C5.31939 58.8528 5.04173 59.1994 4.7178 59.4891C4.00172 59.9557 3.54992 60.7393 2.83384 61.2073C1.87786 62.1085 0.994951 63.0889 0.0462768 64H0V63.8502C0.140048 63.6695 0.286185 63.4949 0.414055 63.3055C0.583331 63.1038 0.757478 62.9057 0.903615 62.6866C1.07167 62.4848 1.2446 62.2867 1.39074 62.0676C1.5588 61.8658 1.73051 61.6678 1.87786 61.4499C2.04714 61.2469 2.22007 61.0463 2.36377 60.8248C2.49286 60.67 2.6256 60.519 2.7559 60.3667C2.90082 60.1414 3.06766 59.9335 3.21136 59.7094C3.34289 59.5559 3.47685 59.4061 3.60837 59.2539C3.75207 59.0286 3.92013 58.8193 4.06383 58.5953C4.19535 58.4418 4.32931 58.292 4.46084 58.1397C4.60454 57.9144 4.7726 57.7065 4.9163 57.4812C5.0466 57.3289 5.18056 57.1779 5.31087 57.0256C5.42291 56.8486 5.55078 56.6815 5.67743 56.5168C5.82478 56.3014 5.98797 56.0997 6.13411 55.8843C6.25954 55.7221 6.38619 55.5612 6.50189 55.3916C6.6261 55.2257 6.75276 55.0623 6.86601 54.889C6.95613 54.7726 7.04868 54.6575 7.1388 54.5424C7.25206 54.3691 7.37749 54.2044 7.50293 54.0398C7.61862 53.8702 7.74527 53.708 7.8707 53.5471C8.01562 53.3317 8.17881 53.1299 8.32373 52.9157C8.3627 52.8563 8.44186 52.7362 8.48083 52.6756C8.59408 52.506 8.71952 52.3451 8.84495 52.1854C8.98987 51.97 9.15306 51.7682 9.2992 51.5528C9.33817 51.4946 9.41611 51.3758 9.45629 51.3176C9.6 51.1022 9.76318 50.9017 9.90688 50.6875C9.94707 50.6281 10.025 50.5092 10.064 50.4498C10.2077 50.2369 10.3697 50.0376 10.5158 49.8284C10.5974 49.6997 10.679 49.5734 10.7569 49.4434C10.7971 49.3865 10.8763 49.2713 10.9164 49.2144C11.0601 49.0002 11.2221 48.8009 11.3683 48.5905C11.4498 48.4617 11.5314 48.3342 11.6094 48.2055C11.6496 48.1486 11.7287 48.0334 11.7689 47.9765C11.9126 47.7623 12.0734 47.5618 12.2207 47.3513C12.3023 47.2263 12.3827 47.1025 12.4618 46.9763C12.5447 46.8525 12.6263 46.7299 12.7054 46.6049C12.7882 46.4823 12.871 46.3598 12.9502 46.236C13.033 46.1072 13.1146 45.9797 13.1925 45.8498C13.2339 45.7953 13.3168 45.6863 13.3582 45.6306C13.4617 45.4549 13.5737 45.284 13.6772 45.1082C13.7186 45.0525 13.8014 44.9436 13.8428 44.8891C13.9196 44.7579 14.0024 44.6292 14.084 44.5029C14.1643 44.3779 14.2484 44.2566 14.3324 44.1352C14.4384 43.9632 14.5492 43.7936 14.6527 43.6203C14.6953 43.567 14.7793 43.4593 14.8207 43.4049C14.945 43.1932 15.0753 42.9865 15.1922 42.7711C15.2665 42.6448 15.3444 42.521 15.4236 42.3985C15.5039 42.2747 15.588 42.1521 15.6732 42.032C15.7999 41.8253 15.9302 41.621 16.0459 41.4081C16.1201 41.2831 16.1993 41.1605 16.2797 41.0405C16.4076 40.8362 16.5379 40.6344 16.6548 40.4265C16.7522 40.2532 16.8581 40.0873 16.958 39.9152C17.0737 39.706 17.2016 39.503 17.3233 39.2962C17.461 39.0499 17.612 38.8135 17.7496 38.5684C17.8714 38.3604 17.9992 38.1574 18.1149 37.9482C18.2136 37.7773 18.3195 37.6115 18.4182 37.4406C18.5338 37.2314 18.6617 37.0296 18.7835 36.8254C18.9272 36.5233 19.0965 36.2361 19.2779 35.9564C19.3339 35.8338 19.3912 35.7113 19.4484 35.5899C19.5519 35.4228 19.6628 35.2607 19.7675 35.0948C19.8454 34.9239 19.9234 34.7544 20.0001 34.5835C20.1194 34.378 20.2485 34.18 20.3727 33.9782C20.4312 33.8569 20.4897 33.7368 20.5493 33.618C20.6273 33.4508 20.7064 33.2837 20.7856 33.1178C20.9171 32.8579 21.0718 32.6115 21.2264 32.3664C21.3068 32.2005 21.386 32.0347 21.4663 31.8688C21.5491 31.7029 21.6307 31.537 21.7123 31.3724C21.7416 31.3105 21.8012 31.1879 21.8317 31.126C21.9315 30.9255 22.0302 30.7237 22.1313 30.5232C22.2506 30.2744 22.3724 30.0255 22.4954 29.7792C22.5758 29.6133 22.6574 29.4487 22.7402 29.284C22.8023 29.154 22.8656 29.0253 22.9265 28.8966C23.0276 28.696 23.1262 28.4942 23.2273 28.2949C23.2894 28.165 23.3527 28.0362 23.4148 27.9075C23.4964 27.7416 23.578 27.5757 23.6572 27.4086C23.7229 27.2848 23.7899 27.161 23.8593 27.0385C23.8642 26.9815 23.8739 26.8664 23.8788 26.8094C23.9166 26.7438 23.9909 26.6126 24.0274 26.547C24.0578 26.4851 24.1187 26.3626 24.148 26.3007C24.3355 25.9404 24.4841 25.5616 24.6241 25.1816C24.6594 25.1209 24.7288 24.9984 24.7642 24.9377C24.9079 24.6121 25.0211 24.273 25.1819 23.9536C25.2489 23.7889 25.3122 23.6231 25.3706 23.4535C25.3986 23.3916 25.4547 23.2653 25.4839 23.2022C25.5156 23.1403 25.5801 23.0165 25.6118 22.9546C25.6873 22.7454 25.7628 22.5374 25.8456 22.3319C25.9284 22.1239 26.0075 21.916 26.094 21.7105C26.1549 21.5557 26.2121 21.3985 26.2742 21.245C26.3583 21.0383 26.435 20.8291 26.5117 20.6199C26.5434 20.5568 26.6055 20.4317 26.6372 20.3698C26.6737 20.251 26.7114 20.1334 26.7504 20.0158C26.8417 19.8078 26.9221 19.5974 27.0062 19.3882C27.0743 19.2186 27.1401 19.049 27.2022 18.8781C27.2412 18.7544 27.2802 18.6318 27.3179 18.5068C27.3593 18.3842 27.3995 18.2604 27.4385 18.1366C27.5505 17.8903 27.6467 17.6378 27.7454 17.3852C27.7563 17.3283 27.7795 17.2132 27.7916 17.155C27.8537 16.9879 27.911 16.8195 27.9719 16.6524C28.0133 16.5236 28.0559 16.3961 28.1022 16.2686C28.1168 16.2117 28.1448 16.0978 28.1594 16.0409C28.2069 15.9146 28.252 15.7871 28.2958 15.6596C28.336 15.5358 28.375 15.412 28.4127 15.2882C28.4687 15.1236 28.5223 14.9589 28.5783 14.7943C28.621 14.6668 28.6648 14.538 28.7123 14.4118C28.7257 14.3536 28.7537 14.2397 28.7671 14.1827C28.8292 14.0156 28.8852 13.8485 28.9461 13.6814C28.9863 13.5526 29.0289 13.4264 29.074 13.2989C29.091 13.2407 29.1264 13.1243 29.1434 13.0649C29.2019 12.8582 29.2481 12.649 29.3042 12.441C29.348 12.3135 29.3943 12.1872 29.4418 12.061C29.4576 12.0028 29.4905 11.8877 29.5063 11.8295C29.5672 11.6203 29.6171 11.4074 29.678 11.1981C29.6963 11.1387 29.7328 11.0199 29.7511 10.9605C29.812 10.7525 29.8607 10.5396 29.9216 10.3316C29.9399 10.2722 29.9776 10.1533 29.9959 10.0939C30.0555 9.88596 30.103 9.67427 30.1615 9.46507C30.198 9.30043 30.2358 9.13455 30.2808 8.97238C30.3015 8.91172 30.3442 8.79164 30.3649 8.73099C30.4099 8.56758 30.4489 8.40294 30.4879 8.2383C30.5329 8.07366 30.5707 7.90901 30.6109 7.74313C30.6535 7.57849 30.6912 7.41261 30.7278 7.24673C30.7875 7.03505 30.8362 6.82089 30.8995 6.61168C30.9214 6.49532 30.9458 6.37896 30.9689 6.26383C31.0347 6.01006 31.0736 5.7501 31.1382 5.49633C31.1625 5.3812 31.1857 5.26607 31.21 5.15095C31.26 4.98383 31.3014 4.81424 31.344 4.64588C31.4024 4.39458 31.439 4.13957 31.5011 3.88952C31.5267 3.77192 31.5535 3.65555 31.5815 3.53795C31.6436 3.28542 31.6813 3.02669 31.7422 2.77292C31.78 2.56248 31.8153 2.35079 31.8725 2.14282C31.8944 1.9918 31.9151 1.84077 31.9383 1.68975C32.0089 1.42731 32.0503 1.15621 32.1283 0.89501C32.1404 0.704371 32.1502 0.512495 32.1599 0.321857C32.205 0.241393 32.2927 0.0804642 32.3377 0Z" fill="#1CBCF4"/>
<path d="M89.6535 25.1469C90.7861 24.9327 91.9612 24.9339 93.095 25.1419C93.2375 26.1966 93.2375 27.2798 93.0889 28.3332C91.9478 28.4496 90.7958 28.4546 89.6559 28.3271C89.6194 27.796 89.5439 27.2686 89.5195 26.7388C89.5427 26.2065 89.6182 25.6779 89.6535 25.1469Z" fill="#20204B"/>
<path d="M180.45 25.2501C181.21 25.1127 181.979 25.1238 182.741 25.2563C182.747 27.5922 182.727 29.9294 182.751 32.2653C183.219 31.634 183.738 31.0051 184.458 30.6622C185.584 30.0631 186.952 30.0655 188.139 30.4728C189.079 30.7922 189.788 31.6166 190.1 32.5575C190.538 33.83 190.465 35.1967 190.466 36.5225C190.464 38.5799 190.471 40.6385 190.463 42.6959C189.694 42.7566 188.923 42.7566 188.156 42.6959C188.148 40.6373 188.155 38.5774 188.152 36.5188C188.145 35.4888 188.236 34.4044 187.801 33.4426C187.574 32.9189 187.109 32.5129 186.562 32.3742C185.472 32.1353 184.225 32.5104 183.543 33.4327C182.961 34.2039 182.755 35.1942 182.741 36.1486C182.738 38.3311 182.743 40.5147 182.738 42.6972C181.977 42.7566 181.213 42.7529 180.453 42.7034C180.445 36.8852 180.452 31.0682 180.45 25.2501Z" fill="#20204B"/>
<path d="M220.911 25.254C221.679 25.1153 222.456 25.1227 223.225 25.2527C223.225 29.9593 223.224 34.667 223.225 39.3736C223.23 39.9034 223.398 40.5199 223.885 40.7959C224.434 41.0423 225.057 40.9482 225.63 40.8417C225.759 41.4434 225.824 42.0574 225.817 42.6751C224.605 42.9165 223.241 42.9945 222.144 42.3272C221.234 41.7702 220.926 40.63 220.91 39.615C220.913 34.828 220.91 30.041 220.911 25.254Z" fill="#20204B"/>
<path d="M97.4983 26.933C98.4775 25.8709 99.9327 25.4154 101.33 25.3324C103.077 25.1888 104.823 25.5392 106.466 26.1309C106.362 27.0667 106.103 27.9816 105.72 28.8382C104.756 28.4024 103.72 28.1276 102.663 28.1078C101.981 28.0979 101.255 28.062 100.639 28.4086C99.6052 28.9806 99.565 30.7062 100.536 31.3598C100.857 31.6037 101.236 31.751 101.606 31.9033C102.809 32.3848 104.051 32.8007 105.172 33.4692C106.173 34.0758 106.832 35.1664 107.009 36.3276C107.174 37.6125 107.111 38.9915 106.459 40.1403C105.631 41.6877 103.954 42.5505 102.294 42.8216C100.142 43.1484 97.8905 42.9318 95.875 42.0777C95.9785 41.0675 96.255 40.0896 96.574 39.1314C98.1036 39.7677 99.8049 40.1651 101.453 39.8296C102.12 39.691 102.81 39.3753 103.17 38.7551C103.374 38.4332 103.389 38.0433 103.434 37.6744C103.45 36.9143 103.016 36.2075 102.368 35.8435C100.836 34.9993 99.006 34.7393 97.6396 33.5856C96.6922 32.8082 96.2951 31.5306 96.3171 30.3262C96.2854 29.1019 96.6556 27.833 97.4983 26.933Z" fill="#20204B"/>
<path d="M275.019 26.6494C276.175 25.8139 277.585 25.3769 278.996 25.3187C280.546 25.258 282.122 25.4091 283.587 25.9574C283.517 26.6556 283.285 27.3179 283.016 27.9579C281.049 27.3154 278.738 27.0344 276.886 28.1609C275.824 28.8022 275.088 29.8891 274.688 31.0589C274.165 32.5728 274.109 34.2168 274.299 35.7976C274.472 37.0021 274.904 38.2029 275.709 39.1214C276.321 39.8307 277.151 40.3259 278.044 40.5722C279.352 40.9287 280.739 40.8483 282.046 40.5252C282.047 38.2858 282.041 36.0477 282.049 33.8083C282.838 33.7476 283.634 33.7464 284.425 33.807C284.431 36.5973 284.424 39.3863 284.429 42.1766C283.395 42.6049 282.284 42.8017 281.176 42.8747C278.968 43.1409 276.57 42.85 274.729 41.4957C273.149 40.3457 272.211 38.4802 271.862 36.5701C271.533 34.655 271.578 32.6446 272.141 30.7779C272.633 29.1364 273.618 27.6286 275.019 26.6494Z" fill="#20204B"/>
<path d="M68.0402 28.5029C67.8783 27.5447 67.8685 26.5507 68.0475 25.5938C71.9884 25.595 75.9304 25.5901 79.8725 25.5963C79.909 26.0184 79.9869 26.4368 80.0101 26.8614C80.0393 27.4135 79.9175 27.957 79.8725 28.5054C78.4683 28.5041 77.0654 28.4979 75.6625 28.5091C75.6455 33.2379 75.6698 37.968 75.6503 42.698C74.5068 42.7909 73.3608 42.8057 72.2185 42.6931C72.2125 37.963 72.2173 33.2329 72.2161 28.5029C70.8241 28.5029 69.4322 28.5029 68.0402 28.5029Z" fill="#20204B"/>
<path d="M144.571 25.5988C148.297 25.5852 152.024 25.5988 155.75 25.5927C155.827 26.2859 155.821 26.9828 155.749 27.6773C154.29 27.6723 152.832 27.6761 151.373 27.6748C151.367 32.6809 151.385 37.6858 151.364 42.6919C150.574 42.7476 149.783 42.739 148.994 42.6981C148.986 37.6908 148.996 32.6846 148.989 27.6773C147.521 27.66 146.054 27.6971 144.589 27.66C144.478 26.9791 144.522 26.2846 144.571 25.5988Z" fill="#20204B"/>
<path d="M112.607 26.8017C112.783 26.7967 112.961 26.793 113.141 26.7905C113.145 27.9863 113.14 29.1834 113.144 30.3792C114.094 30.3928 115.044 30.3743 115.994 30.3904C116.119 31.2322 116.129 32.0974 115.985 32.9368C115.038 32.938 114.091 32.933 113.146 32.9405C113.143 34.6735 113.137 36.4079 113.148 38.1409C113.188 38.8168 113.329 39.6512 113.998 39.9743C114.698 40.2466 115.469 40.082 116.188 39.9805C116.526 40.7777 116.587 41.7036 116.462 42.5615C114.956 42.8846 113.328 42.996 111.879 42.3733C111.171 42.0701 110.579 41.5019 110.276 40.7814C109.924 39.9941 109.881 39.1115 109.9 38.261C109.9 36.4871 109.907 34.7119 109.896 32.938C109.377 32.9355 108.857 32.9368 108.34 32.938C108.319 32.7263 108.185 32.4738 108.37 32.3005C109.785 30.4708 111.195 28.635 112.607 26.8017Z" fill="#20204B"/>
<path d="M118.595 30.7934C120.401 30.2066 122.351 29.8761 124.231 30.2586C125.358 30.4925 126.489 31.0843 127.091 32.1192C127.618 33.0327 127.78 34.1209 127.758 35.1669C127.753 37.5189 127.757 39.8697 127.756 42.2218C125.754 42.8382 123.624 43.1551 121.54 42.8432C120.488 42.7132 119.41 42.3394 118.67 41.5372C117.832 40.6001 117.614 39.2322 117.826 38.0178C118.012 36.8331 118.907 35.8787 119.962 35.4083C121.401 34.7708 123.017 34.7101 124.558 34.8797C124.634 34.0862 124.296 33.1652 123.475 32.9349C122.081 32.5611 120.61 32.8149 119.257 33.2494C118.86 32.4918 118.618 31.6549 118.595 30.7934ZM121.657 37.2652C120.616 37.7579 120.567 39.533 121.612 40.0505C122.526 40.4986 123.585 40.3698 124.548 40.1817C124.554 39.1356 124.549 38.0896 124.552 37.0436C123.593 36.8591 122.552 36.8146 121.657 37.2652Z" fill="#20204B"/>
<path d="M157.183 31.7798C158.549 30.3339 160.709 29.9106 162.586 30.3537C163.899 30.6508 165.039 31.6016 165.606 32.837C166.226 34.169 166.347 35.7003 166.141 37.1449C163.417 37.1499 160.694 37.135 157.97 37.1536C158.044 38.1736 158.215 39.2915 158.97 40.0392C159.853 40.9045 161.156 41.0642 162.328 40.9862C163.266 40.9787 164.18 40.7324 165.061 40.4217C165.319 41.0159 165.409 41.6596 165.504 42.2971C164.187 42.8195 162.761 43.0015 161.356 42.9582C160.108 42.8987 158.825 42.6252 157.789 41.8837C156.608 41.079 155.911 39.7049 155.681 38.3048C155.574 37.5151 155.468 36.7117 155.577 35.9144C155.671 34.4178 156.133 32.8766 157.183 31.7798ZM159.393 32.5461C158.497 33.1923 158.123 34.3287 158.016 35.3958C159.986 35.397 161.956 35.397 163.927 35.3958C163.954 34.2519 163.514 32.9843 162.485 32.4C161.533 31.885 160.298 31.9593 159.393 32.5461Z" fill="#20204B"/>
<path d="M170.711 31.4064C171.771 30.535 173.163 30.1636 174.511 30.1933C175.556 30.176 176.607 30.3307 177.595 30.6847C177.571 31.3309 177.435 31.9672 177.206 32.5701C176.104 32.1863 174.921 32.1034 173.77 32.2284C172.786 32.3782 171.937 33.0628 171.523 33.9751C170.865 35.4111 170.836 37.0996 171.261 38.6086C171.561 39.6992 172.462 40.5596 173.538 40.8331C174.775 41.129 176.095 40.9854 177.289 40.5645C177.552 41.1463 177.712 41.769 177.759 42.4065C176.182 42.9983 174.436 43.1183 172.792 42.7668C171.685 42.5328 170.63 41.951 169.923 41.0436C169.119 40.0508 168.713 38.7782 168.612 37.5094C168.472 36.6069 168.584 35.6896 168.749 34.7996C169.008 33.4911 169.665 32.2358 170.711 31.4064Z" fill="#20204B"/>
<path d="M198.063 30.6236C199.242 30.0492 200.653 30.0591 201.861 30.5382C202.774 30.9033 203.408 31.7649 203.689 32.6995C204.114 34.0563 203.963 35.491 203.99 36.8911C203.989 38.8284 203.992 40.7658 203.989 42.7031C203.217 42.7489 202.442 42.7588 201.672 42.6957C201.664 40.5516 201.671 38.4063 201.669 36.2623C201.674 35.2521 201.72 34.1801 201.247 33.2566C200.95 32.6364 200.262 32.296 199.602 32.3071C198.594 32.2638 197.554 32.7416 197.001 33.6144C196.428 34.466 196.276 35.517 196.258 36.5259C196.249 38.5846 196.267 40.6432 196.251 42.7031C195.491 42.7539 194.728 42.7526 193.97 42.7019C193.96 38.6217 193.97 34.5416 193.965 30.4614C194.618 30.376 195.275 30.3785 195.929 30.4577C196.021 31.0804 196.087 31.7055 196.134 32.3331C196.69 31.6746 197.265 30.9888 198.063 30.6236Z" fill="#20204B"/>
<path d="M211.547 30.2307C212.939 30.081 214.429 30.3124 215.587 31.1579C216.636 31.8846 217.339 33.047 217.644 34.2886C217.944 35.3755 217.926 36.5169 217.868 37.6347C217.751 38.7104 217.463 39.7948 216.86 40.6985C216.266 41.6208 215.346 42.3103 214.321 42.6544C213.108 43.0431 211.785 43.0654 210.56 42.72C209.47 42.4068 208.475 41.7136 207.846 40.7493C207.043 39.5522 206.752 38.0717 206.755 36.6431C206.739 35.2022 207.013 33.7068 207.801 32.4862C208.621 31.2 210.06 30.3892 211.547 30.2307ZM211.852 32.1446C211.13 32.2312 210.423 32.5952 210.013 33.2203C209.374 34.1809 209.189 35.3829 209.217 36.523C209.184 37.6396 209.33 38.8082 209.899 39.7862C210.887 41.5626 213.846 41.5292 214.809 39.7453C215.391 38.7426 215.5 37.5431 215.491 36.403C215.462 35.2715 215.301 34.067 214.609 33.1398C213.988 32.2844 212.846 31.9935 211.852 32.1446Z" fill="#20204B"/>
<path d="M232.008 30.2308C233.396 30.081 234.882 30.3125 236.038 31.1518C237.094 31.8809 237.8 33.0495 238.106 34.2973C238.403 35.3817 238.384 36.5194 238.328 37.6335C238.21 38.7092 237.923 39.7924 237.32 40.6961C236.726 41.6208 235.805 42.3103 234.777 42.6557C233.566 43.0432 232.245 43.0654 231.023 42.7213C229.932 42.4081 228.937 41.7161 228.306 40.753C227.502 39.5522 227.21 38.068 227.213 36.6345C227.199 35.1973 227.474 33.7056 228.26 32.4875C229.079 31.2001 230.52 30.388 232.008 30.2308ZM232.301 32.1458C231.578 32.2337 230.872 32.6026 230.465 33.2302C229.832 34.1896 229.648 35.3867 229.676 36.5218C229.643 37.6409 229.789 38.8095 230.359 39.7887C231.349 41.5639 234.308 41.528 235.269 39.7417C235.85 38.7389 235.959 37.5419 235.95 36.4018C235.921 35.2703 235.759 34.0658 235.068 33.1399C234.446 32.282 233.299 31.9923 232.301 32.1458Z" fill="#20204B"/>
<path d="M243.724 30.4748C245.478 29.9301 247.504 30.1418 249.002 31.2646C249.906 30.663 250.993 30.3894 252.069 30.4191C252.137 31.1062 252.12 31.7969 252.076 32.4852C251.372 32.5186 250.666 32.4951 249.963 32.5038C250.864 34.1527 250.551 36.475 249.054 37.6609C247.616 38.8134 245.618 38.9657 243.89 38.5349C243.522 38.8468 243.12 39.1811 242.993 39.6737C242.822 40.2345 243.21 40.9005 243.797 40.9674C245.72 41.2905 247.723 40.8163 249.617 41.3808C250.543 41.6358 251.322 42.3947 251.562 43.3466C251.712 44.0064 251.72 44.7096 251.542 45.3644C251.228 46.3436 250.452 47.1037 249.581 47.5914C248.091 48.432 246.338 48.6412 244.659 48.5619C243.461 48.531 242.177 48.3391 241.202 47.5753C240.06 46.611 240.044 44.738 240.888 43.5694C241.203 43.1151 241.642 42.771 242.087 42.4553C241.524 42.0022 241.016 41.3722 241.056 40.5972C240.968 39.4992 241.626 38.5386 242.427 37.8751C241.773 37.3316 241.22 36.6421 240.965 35.8139C240.536 34.4894 240.794 32.9506 241.65 31.8588C242.174 31.1866 242.929 30.7373 243.724 30.4748ZM244.936 31.969C244.103 32.1052 243.484 32.8318 243.295 33.6414C243.069 34.5859 243.194 35.7075 243.891 36.4267C244.371 36.9256 245.087 37.0605 245.748 37.0184C246.543 37.0717 247.391 36.7015 247.777 35.9674C248.362 34.8892 248.263 33.3963 247.402 32.4963C246.752 31.8638 245.774 31.8477 244.936 31.969ZM243.985 43.0223C242.654 43.1931 241.946 45.1181 242.898 46.0948C243.716 46.7892 244.876 46.7558 245.882 46.7286C246.971 46.6556 248.159 46.4228 248.931 45.5699C249.487 44.9633 249.483 43.8356 248.773 43.3553C248.196 43.0012 247.492 43.047 246.847 43.0136C245.893 43.005 244.93 42.9121 243.985 43.0223Z" fill="#20204B"/>
<path d="M300.454 30.2371C301.759 30.0935 303.155 30.2643 304.284 30.9922C305.441 31.6904 306.232 32.9035 306.57 34.2132C307.042 36.0577 306.985 38.073 306.26 39.842C305.625 41.4166 304.149 42.5902 302.495 42.8489C300.684 43.1918 298.638 42.7919 297.319 41.4129C296.031 40.0624 295.651 38.0916 295.684 36.2719C295.764 34.5697 296.217 32.7562 297.512 31.5802C298.309 30.8127 299.37 30.3695 300.454 30.2371ZM300.862 32.136C300.272 32.1991 299.685 32.422 299.266 32.8565C298.608 33.5262 298.324 34.4769 298.215 35.3954C298.061 36.4675 298.12 37.5692 298.371 38.6227C298.584 39.4347 298.989 40.2716 299.736 40.7011C300.651 41.2148 301.815 41.2198 302.748 40.7494C303.541 40.3359 303.979 39.4743 304.205 38.6326C304.521 37.3575 304.524 36.0082 304.251 34.7245C304.079 33.9805 303.749 33.2415 303.173 32.7327C302.537 32.2004 301.661 32.0382 300.862 32.136Z" fill="#20204B"/>
<path d="M327.418 30.519C328.796 29.9743 330.417 30.1105 331.704 30.8458C333.095 31.6876 333.756 33.3452 333.933 34.9173C334.067 36.4474 334.049 38.0505 333.44 39.4827C333.023 40.5015 332.3 41.3891 331.387 41.9858C329.684 43.0343 327.548 43.1729 325.643 42.7062C325.643 44.5631 325.643 46.42 325.643 48.2781C324.871 48.3994 324.092 48.4155 323.322 48.2793C323.322 42.3386 323.322 36.3991 323.322 30.4583C323.968 30.3729 324.62 30.3791 325.27 30.4571C325.375 31.0117 325.41 31.5762 325.516 32.1308C325.999 31.4388 326.626 30.8272 327.418 30.519ZM327.481 32.4625C326.341 32.9292 325.642 34.177 325.642 35.3988C325.643 37.1629 325.642 38.9281 325.643 40.6934C326.307 40.9199 327.005 41.0053 327.705 40.9781C328.65 41.0128 329.645 40.7206 330.33 40.0324C331.076 39.3082 331.43 38.2646 331.544 37.2421C331.675 35.9695 331.572 34.6053 330.959 33.464C330.314 32.2335 328.666 31.9587 327.481 32.4625Z" fill="#20204B"/>
<path d="M80.1546 30.3706C81.0326 30.2233 81.9594 30.1837 82.8228 30.4263C83.0761 30.9463 83.0883 31.5429 83.2052 32.1037C83.7946 31.3696 84.4729 30.6058 85.4082 30.3533C86.0354 30.2035 86.6869 30.2468 87.3202 30.3224C87.4249 31.3028 87.4249 32.3018 87.2593 33.2748C86.3313 33.2612 85.2633 33.125 84.4888 33.7625C83.6558 34.4483 83.4378 35.6033 83.4268 36.6369C83.4293 38.6572 83.4281 40.6775 83.4281 42.699C82.3308 42.8649 81.2214 42.8636 80.1254 42.699C80.1254 38.989 80.1254 35.279 80.1241 31.5689C80.129 31.1691 80.101 30.7668 80.1546 30.3706Z" fill="#20204B"/>
<path d="M88.5873 30.3859C90.1948 30.3773 91.8035 30.3847 93.4135 30.3822C93.4135 34.4859 93.4159 38.5896 93.4123 42.6945C93.0019 42.7192 92.5951 42.7688 92.1884 42.8133C91.5125 42.8876 90.8439 42.7291 90.1729 42.6871C90.1668 39.4363 90.179 36.1855 90.1668 32.936C89.637 32.9212 89.1024 32.9756 88.5763 32.8952C88.429 32.0658 88.4387 31.2141 88.5873 30.3859Z" fill="#20204B"/>
<path d="M130.729 30.3631C131.633 30.2282 132.562 30.196 133.456 30.4201C133.619 30.9586 133.707 31.5169 133.797 32.0739C134.314 31.5094 134.814 30.8868 135.51 30.5414C136.254 30.17 137.114 30.2332 137.916 30.321C138.031 31.3101 138.04 32.3277 137.841 33.3069C136.858 33.2029 135.688 33.1497 134.926 33.906C134.209 34.6116 134.044 35.6763 134.028 36.6455C134.026 38.6633 134.026 40.6811 134.029 42.6989C132.93 42.8636 131.819 42.8685 130.721 42.6952C130.733 38.5841 130.715 34.4742 130.729 30.3631Z" fill="#20204B"/>
<path d="M252.664 30.4589C253.513 30.4057 254.364 30.4107 255.215 30.4552C256.32 34.216 257.387 37.9892 258.538 41.7363C259.282 39.4746 259.927 37.1796 260.633 34.9043C261.083 33.4213 261.542 31.942 261.977 30.454C262.774 30.4119 263.573 30.4119 264.372 30.4552C263.04 34.6245 261.721 38.7975 260.397 42.9693C260.003 44.1379 259.707 45.3448 259.185 46.4651C258.792 47.3762 258.097 48.2391 257.101 48.4644C256.073 48.681 255.001 48.577 253.994 48.3109C253.972 47.6857 254.111 47.0767 254.318 46.4911C255.052 46.662 255.856 46.8724 256.581 46.5468C257.132 46.246 257.387 45.6221 257.586 45.0539C257.837 44.2728 258.077 43.4892 258.323 42.7068C257.769 42.7019 257.211 42.7588 256.665 42.6734C255.297 38.6143 254.004 34.528 252.664 30.4589Z" fill="#20204B"/>
<path d="M288.062 30.4647C288.718 30.388 289.387 30.3347 290.038 30.4907C290.149 31.0923 290.202 31.7051 290.259 32.3154C290.767 31.6481 291.354 30.9921 292.14 30.6652C292.838 30.3731 293.606 30.404 294.346 30.4474C294.455 31.1505 294.412 31.8623 294.334 32.5667C293.382 32.5172 292.311 32.5209 291.553 33.1993C290.593 34.0027 290.403 35.3433 290.365 36.5305C290.342 38.5879 290.368 40.6453 290.353 42.7027C289.593 42.751 288.831 42.7584 288.073 42.694C288.055 38.6176 288.075 34.5411 288.062 30.4647Z" fill="#20204B"/>
<path d="M309.78 30.4607C310.542 30.3752 311.309 30.3765 312.074 30.4619C312.068 32.6852 312.073 34.9097 312.072 37.133C312.103 38.0825 312.142 39.0976 312.676 39.9171C313.106 40.593 313.909 40.8901 314.669 40.9557C315.569 41.0064 316.49 40.999 317.362 40.7304C317.362 37.3076 317.362 33.8835 317.362 30.4607C318.134 30.379 318.91 30.3752 319.683 30.4594C319.682 34.4059 319.684 38.3523 319.682 42.2988C317.823 42.7915 315.881 43.1468 313.96 42.8645C312.974 42.7742 311.964 42.4721 311.237 41.7603C310.158 40.7502 309.802 39.1941 309.786 37.7544C309.772 35.3232 309.785 32.8919 309.78 30.4607Z" fill="#20204B"/>
<path d="M29.1769 40.5396C36.1002 36.0398 44.2912 33.6432 52.4907 33.4773C52.6758 33.4488 52.8098 33.606 52.9535 33.6964C56.4084 36.2997 60.1751 38.5069 64.2012 40.0605C61.7266 39.7857 59.2349 39.725 56.7494 39.6817C44.3813 39.6817 31.9097 42.2974 20.8301 47.9806C23.1805 45.0505 26.0594 42.5858 29.1769 40.5396Z" fill="#D1D2D4"/>
</svg>
